<svg width="20" height="15" viewBox="0 0 20 15" fill="none" xmlns="http://www.w3.org/2000/svg">
<path d="M19.8083 10.0583C19.565 9.81416 19.1692 9.81416 18.925 10.0583L17.075 11.9083V3.37499C17.075 1.65166 15.6725 0.24999 13.95 0.24999H9.075C8.73 0.24999 8.45 0.52999 8.45 0.87499C8.45 1.21999 8.73 1.49999 9.075 1.49999H13.95C14.9833 1.49999 15.825 2.34166 15.825 3.37499V11.9083L13.975 10.0583C13.7308 9.81416 13.335 9.81416 13.0917 10.0583C12.8483 10.3025 12.8467 10.6983 13.0917 10.9417L16.0083 13.8583C16.1292 13.9808 16.2892 14.0417 16.45 14.0417C16.6108 14.0417 16.7692 13.9817 16.8917 13.8583L19.8083 10.9417C20.0533 10.6983 20.0533 10.3025 19.8083 10.0583V10.0583ZM10.925 12.7917H6.05C5.01667 12.7917 4.175 11.95 4.175 10.9167V2.38332L6.025 4.23332C6.14833 4.35582 6.30833 4.41666 6.46833 4.41666C6.62833 4.41666 6.78833 4.35582 6.91 4.23332C7.15417 3.98916 7.15417 3.59332 6.91 3.34999L3.99333 0.433323C3.74917 0.188323 3.35333 0.188323 3.11 0.433323L0.193333 3.34999C-0.0516675 3.59332 -0.0516675 3.98916 0.193333 4.23332C0.438333 4.47749 0.832499 4.47749 1.07667 4.23332L2.92667 2.38332V10.9167C2.92667 12.64 4.32917 14.0417 6.05167 14.0417H10.9267C11.2717 14.0417 11.5517 13.7617 11.5517 13.4167C11.5517 13.0717 11.2708 12.7917 10.9267 12.7917H10.925Z" fill="#1CFD19"/>
</svg>
